<svg xmlns="http://www.w3.org/2000/svg" viewBox="0 0 320 120" width="320" height="120" role="img" aria-label="Ilustração de duas classes separadas por uma fronteira de decisão, etapa de modelagem com scikit-learn">
  <rect width="320" height="120" rx="10" fill="#131a24"/>
  <g transform="translate(18,16)">
    <line x1="0" y1="88" x2="150" y2="88" stroke="#3a4a60" stroke-width="2"/>
    <line x1="0" y1="88" x2="0" y2="0" stroke="#3a4a60" stroke-width="2"/>
    <line x1="8" y1="82" x2="146" y2="8" stroke="#f0913a" stroke-width="2.5" stroke-dasharray="7 5"/>
    <g fill="#4aa3df">
      <circle cx="24" cy="26" r="5"/><circle cx="45" cy="16" r="5"/><circle cx="38" cy="42" r="5"/>
      <circle cx="66" cy="28" r="5"/><circle cx="20" cy="52" r="5"/><circle cx="58" cy="49" r="5"/>
    </g>
    <g fill="#5fd0a0">
      <rect x="86" y="60" width="9" height="9" rx="2"/><rect x="110" y="48" width="9" height="9" rx="2"/>
      <rect x="98" y="76" width="9" height="9" rx="2"/><rect x="126" y="66" width="9" height="9" rx="2"/>
      <rect x="74" y="74" width="9" height="9" rx="2"/><rect x="122" y="34" width="9" height="9" rx="2"/>
    </g>
  </g>
  <g transform="translate(186,40)">
    <text x="0" y="0" font-family="Segoe UI, Helvetica, Arial, sans-serif" font-size="17" font-weight="600" fill="#e6edf5">scikit-learn</text>
    <text x="0" y="20" font-family="Segoe UI, Helvetica, Arial, sans-serif" font-size="11" fill="#8fa3bd">aprende a fronteira</text>
    <text x="0" y="35" font-family="Segoe UI, Helvetica, Arial, sans-serif" font-size="11" fill="#8fa3bd">que separa os casos</text>
  </g>
</svg>
